<svg xmlns="http://www.w3.org/2000/svg" viewBox="0 0 48 48" fill="none">
  <defs>
    <linearGradient id="fg" x1="0%" y1="0%" x2="100%" y2="100%">
      <stop offset="0%" stop-color="#14b8a6"/>
      <stop offset="100%" stop-color="#f43f5e"/>
    </linearGradient>
  </defs>
  <path d="M20 8 C14 8 10 13 10 19 C10 23 11.5 26.5 14 29 L14 34 C14 35.1 14.9 36 16 36 L22 36 C23.1 36 24 35.1 24 34 L24 32 C25.3 32 26 31.3 26 30 L26 28 C27.5 27 28 25 28 23 L28 19 C28 13 24 8 20 8 Z" fill="url(#fg)"/>
  <line x1="28" y1="16" x2="44" y2="14" stroke="url(#fg)" stroke-width="1.5" stroke-linecap="round"/>
  <line x1="28" y1="20" x2="44" y2="19" stroke="url(#fg)" stroke-width="1.5" stroke-linecap="round"/>
  <line x1="28" y1="24" x2="44" y2="24" stroke="url(#fg)" stroke-width="1.5" stroke-linecap="round"/>
  <circle cx="34" cy="14" r="2" fill="url(#fg)"/>
  <line x1="36" y1="14" x2="36" y2="8" stroke="url(#fg)" stroke-width="1.5" stroke-linecap="round"/>
  <circle cx="41" cy="19" r="2" fill="url(#fg)"/>
  <line x1="43" y1="19" x2="43" y2="13" stroke="url(#fg)" stroke-width="1.5" stroke-linecap="round"/>
</svg>
