<svg xmlns="http://www.w3.org/2000/svg" viewBox="0 0 48 48" fill="none">
  <defs>
    <linearGradient id="gradF" x1="0%" y1="0%" x2="100%" y2="100%">
      <stop offset="0%" stop-color="#14b8a6"/>
      <stop offset="100%" stop-color="#f43f5e"/>
    </linearGradient>
  </defs>
  <path d="M24 4 C16 4 10 10 10 18 C10 24 12 28 15 32 L15 40 C15 42 17 44 19 44 L29 44 C31 44 33 42 33 40 L33 36 C35 36 36 35 36 33 L36 30 C38 29 39 26 39 24 L39 18 C39 10 33 4 24 4 Z" fill="url(#gradF)"/>
  <path d="M24 14 L30 18.5 L27.5 26 L20.5 26 L18 18.5 Z" fill="white"/>
</svg>
