<svg xmlns="http://www.w3.org/2000/svg" viewBox="0 0 48 48" fill="none">
  <defs>
    <linearGradient id="gradB" x1="0%" y1="0%" x2="100%" y2="100%">
      <stop offset="0%" stop-color="#14b8a6"/>
      <stop offset="100%" stop-color="#f43f5e"/>
    </linearGradient>
  </defs>
  <path d="M24 8 C18 8 14 13 14 19 C14 24 15.5 27.5 18 30 L18 35 C18 36.1 18.9 37 20 37 L28 37 C29.1 37 30 36.1 30 35 L30 33 C31.3 33 32 32.3 32 31 L32 29 C33.5 28 34 26 34 24 L34 19 C34 13 30 8 24 8 Z" fill="url(#gradB)"/>
  <path d="M24 16 L28 19 L26.5 24 L21.5 24 L20 19 Z" fill="white" opacity="0.9"/>
</svg>
