<svg xmlns="http://www.w3.org/2000/svg" viewBox="0 0 48 48" fill="none">
  <defs>
    <linearGradient id="grad" x1="0%" y1="0%" x2="100%" y2="100%">
      <stop offset="0%" stop-color="#14b8a6"/>
      <stop offset="100%" stop-color="#f43f5e"/>
    </linearGradient>
  </defs>
  <path d="M14 18 C10 18 7 22 7 26 C7 30 8 33 10 35 L10 39 C10 40 11 41 12 41 L16 41 C17 41 18 40 18 39 L18 37 C19 37 20 36 20 35 L20 26 C20 22 17 18 14 18 Z" fill="#14b8a6" opacity="0.3"/>
  <path d="M34 18 C30 18 27 22 27 26 C27 30 28 33 30 35 L30 39 C30 40 31 41 32 41 L36 41 C37 41 38 40 38 39 L38 37 C39 37 40 36 40 35 L40 26 C40 22 37 18 34 18 Z" fill="#f43f5e" opacity="0.3"/>
  <path d="M24 10 C18 10 14 15 14 21 C14 26 15.5 29.5 18 32 L18 37 C18 38.1 18.9 39 20 39 L28 39 C29.1 39 30 38.1 30 35 L30 33 C31.3 33 32 32.3 32 31 L32 29 C33.5 28 34 26 34 24 L34 21 C34 15 30 10 24 10 Z" fill="url(#grad)"/>
  <path d="M24 18 L28 21 L26.5 26 L21.5 26 L20 21 Z" fill="white" opacity="0.9"/>
  <path d="M38 12 C38 9.8 36.2 8 34 8 L30 8 C27.8 8 26 9.8 26 12 C26 14.2 27.8 16 30 16 L31 16 L33 19 L33 16 L34 16 C36.2 16 38 14.2 38 12 Z" fill="#14b8a6" opacity="0.8"/>
</svg>
