<svg xmlns="http://www.w3.org/2000/svg" viewBox="0 0 48 48" fill="none">
  <defs>
    <linearGradient id="grad" x1="0%" y1="0%" x2="100%" y2="100%">
      <stop offset="0%" stop-color="#14b8a6"/>
      <stop offset="100%" stop-color="#f43f5e"/>
    </linearGradient>
  </defs>

  <!-- Head silhouette (left-facing profile) -->
  <path d="M20 8 C14 8 10 13 10 19 C10 23 11.5 26.5 14 29 L14 34 C14 35.1 14.9 36 16 36 L22 36 C23.1 36 24 35.1 24 34 L24 32 C25.3 32 26 31.3 26 30 L26 28 C27.5 27 28 25 28 23 L28 19 C28 13 24 8 20 8 Z" fill="url(#grad)"/>

  <!-- Musical staff lines flowing rightward from head -->
  <line x1="28" y1="16" x2="44" y2="14" stroke="url(#grad)" stroke-width="1.2" stroke-linecap="round"/>
  <line x1="28" y1="19" x2="44" y2="18" stroke="url(#grad)" stroke-width="1.2" stroke-linecap="round"/>
  <line x1="28" y1="22" x2="44" y2="22" stroke="url(#grad)" stroke-width="1.2" stroke-linecap="round"/>
  <line x1="28" y1="25" x2="44" y2="26" stroke="url(#grad)" stroke-width="1.2" stroke-linecap="round"/>
  <line x1="28" y1="28" x2="44" y2="30" stroke="url(#grad)" stroke-width="1.2" stroke-linecap="round"/>

  <!-- Musical notes on staff -->
  <!-- Note 1 -->
  <circle cx="33" cy="14" r="1.8" fill="url(#grad)"/>
  <line x1="34.8" y1="14" x2="34.8" y2="8" stroke="url(#grad)" stroke-width="1.2" stroke-linecap="round"/>
  <!-- Note 2 -->
  <circle cx="38" cy="18" r="1.8" fill="url(#grad)"/>
  <line x1="39.8" y1="18" x2="39.8" y2="12" stroke="url(#grad)" stroke-width="1.2" stroke-linecap="round"/>
  <!-- Note 3 -->
  <circle cx="43" cy="22" r="1.8" fill="url(#grad)"/>
  <line x1="44.8" y1="22" x2="44.8" y2="16" stroke="url(#grad)" stroke-width="1.2" stroke-linecap="round"/>

  <!-- Sparkles -->
  <circle cx="36" cy="9" r="1" fill="#f43f5e" opacity="0.7"/>
  <circle cx="41" cy="11" r="0.8" fill="#14b8a6" opacity="0.7"/>
  <circle cx="44" cy="8" r="1.2" fill="#f43f5e" opacity="0.5"/>
</svg>
